# File created by Blade
# Date/Time:  Tue Jan 27 18:02:00 2015
#---------------------------------------------------------
:version 1.10
:name HOM
:units
  mass 1.0
  length 1.000000
  angle deg
:documentation
     Acclaim Skeleton File
:root
   axis xyz
   order TX TY TZ RX RY RZ
   position 0.000000 0.000000 0.000000
   orientation 0 0 0
:bonedata
   begin
      id 1
      name Spine_dum
      direction 0.000000 1.000000 0.000000
      length 5.195262
      axis 0.0 0.0 0.0 xyz
   end
   begin
      id 2
      name LeftUpLeg_dum
      direction 1.000000 0.000000 0.000000
      length 3.351363
      axis 0.0 0.0 0.0 xyz
   end
   begin
      id 3
      name RightUpLeg_dum
      direction -1.000000 0.000000 0.000000
      length 3.351363
      axis 0.0 0.0 0.0 xyz
   end
   begin
      id 4
      name Spine
      direction 0.000000 1.000000 0.000000
      length 0.000000
      axis 0.0 0.0 0.0 xyz
      dof rx ry rz
   end
   begin
      id 5
      name Spine_dum1
      direction 0.000000 1.000000 0.000000
      length 15.653875
      axis 0.0 0.0 0.0 xyz
   end
   begin
      id 6
      name Spine_dum2
      direction 0.000000 1.000000 0.000000
      length 10.329768
      axis 0.0 0.0 0.0 xyz
   end
   begin
      id 7
      name Spine_dum3
      direction 0.000000 1.000000 0.000000
      length 10.329768
      axis 0.0 0.0 0.0 xyz
   end
   begin
      id 8
      name Head
      direction 0.000000 1.000000 0.000000
      length 4.527550
      axis 0.0 0.0 0.0 xyz
      dof rx ry rz
   end
   begin
      id 9
      name LeftShoulder
      direction 1.000000 0.000000 0.000000
      length 6.996006
      axis 0.0 0.0 -90.0 xyz
      dof rx ry rz
   end
   begin
      id 10
      name LeftArm
      direction 1.000000 0.000000 0.000000
      length 10.209302
      axis 0.0 0.0 -90.0 xyz
      dof rx ry rz
   end
   begin
      id 11
      name LeftForeArm
      direction 1.000000 0.000000 0.000000
      length 8.563163
      axis 0.0 0.0 -90.0 xyz
      dof ry rz rx
   end
   begin
      id 12
      name LeftHand
      direction 0.000000 0.000000 0.000000
      length 0.000000
      axis 0.0 0.0 -90.0 xyz
      dof rx ry rz
   end
   begin
      id 13
      name LeftHand_dum1
      direction 0.000000 0.000000 0.000000
      length 0.000000
      axis 0.0 0.0 -90.0 xyz
   end
   begin
      id 14
      name LeftHand_dum2
      direction 1.000000 0.000000 0.000000
      length 3.937000
      axis 0.0 0.0 -90.0 xyz
   end
   begin
      id 15
      name LeftHandThumb1
      direction 0.000000 0.000000 1.000000
      length 3.937000
      axis 0.0 0.0 -90.0 xyz
      dof rx rz ry
   end
   begin
      id 16
      name RightShoulder
      direction -1.000000 0.000000 0.000000
      length 6.996006
      axis 0.0 0.0 90.0 xyz
      dof rx ry rz
   end
   begin
      id 17
      name RightArm
      direction -1.000000 0.000000 0.000000
      length 10.209302
      axis 0.0 0.0 90.0 xyz
      dof rx ry rz
   end
   begin
      id 18
      name RightForeArm
      direction -1.000000 0.000000 0.000000
      length 8.563163
      axis 0.0 0.0 90.0 xyz
      dof ry rz rx
   end
   begin
      id 19
      name RightHand
      direction 0.000000 0.000000 0.000000
      length 0.000000
      axis 0.0 0.0 90.0 xyz
      dof rx ry rz
   end
   begin
      id 20
      name RightHand_dum1
      direction 0.000000 0.000000 0.000000
      length 0.000000
      axis 0.0 0.0 90.0 xyz
   end
   begin
      id 21
      name RightHand_dum2
      direction -1.000000 0.000000 0.000000
      length 3.937000
      axis 0.0 0.0 90.0 xyz
   end
   begin
      id 22
      name RightHandThumb1
      direction 0.000000 0.000000 1.000000
      length 3.937000
      axis 0.0 0.0 90.0 xyz
      dof rx rz ry
   end
   begin
      id 23
      name LeftUpLeg
      direction 0.000000 -1.000000 0.000000
      length 16.346831
      axis 0.0 0.0 0.0 xyz
      dof rx ry rz
   end
   begin
      id 24
      name LeftLeg
      direction 0.000000 -1.000000 0.000000
      length 13.959795
      axis 0.0 0.0 0.0 xyz
      dof rx ry rz
   end
   begin
      id 25
      name LeftFoot
      direction 0.000000 -0.258819 0.965926
      length 5.165550
      axis 15.0 0.0 0.0 xyz
      dof rx ry rz
   end
   begin
      id 26
      name LeftToeBase
      direction 0.000000 0.000000 1.000000
      length 2.952750
      axis 0.0 0.0 0.0 xyz
      dof rx ry rz
   end
   begin
      id 27
      name RightUpLeg
      direction 0.000000 -1.000000 0.000000
      length 16.346831
      axis 0.0 0.0 0.0 xyz
      dof rx ry rz
   end
   begin
      id 28
      name RightLeg
      direction 0.000000 -1.000000 0.000000
      length 13.959795
      axis 0.0 0.0 0.0 xyz
      dof rx ry rz
   end
   begin
      id 29
      name RightFoot
      direction 0.000000 -0.258819 0.965926
      length 5.165550
      axis 15.0 0.0 0.0 xyz
      dof rx ry rz
   end
   begin
      id 30
      name RightToeBase
      direction 0.000000 0.000000 1.000000
      length 2.952750
      axis 0.0 0.0 0.0 xyz
      dof rx ry rz
   end
:hierarchy
   begin
      root Spine_dum LeftUpLeg_dum RightUpLeg_dum
      Spine_dum Spine
      LeftUpLeg_dum LeftUpLeg
      RightUpLeg_dum RightUpLeg
      Spine Spine_dum1 Spine_dum2 Spine_dum3
      Spine_dum1 Head
      Spine_dum2 LeftShoulder
      Spine_dum3 RightShoulder
      LeftShoulder LeftArm
      LeftArm LeftForeArm
      LeftForeArm LeftHand
      LeftHand LeftHand_dum1 LeftHand_dum2
      LeftHand_dum1 LeftHandThumb1
      RightShoulder RightArm
      RightArm RightForeArm
      RightForeArm RightHand
      RightHand RightHand_dum1 RightHand_dum2
      RightHand_dum1 RightHandThumb1
      LeftUpLeg LeftLeg
      LeftLeg LeftFoot
      LeftFoot LeftToeBase
      RightUpLeg RightLeg
      RightLeg RightFoot
      RightFoot RightToeBase
   end

# File created by Blade
# Date/Time:  Tue Jan 27 18:01:49 2015
# Frame Rate: 120.000 fps
#------------------------------------------------------
:FULLY-SPECIFIED
:DEGREES
749
root -1.510577 31.952458 -6.037659 6.237338 25.820511 5.221725
Spine -8.339387 -0.902154 -3.827815
Head 4.281405 -7.460308 -7.234367
LeftShoulder -11.355938 14.177882 6.990238
LeftArm 23.573863 39.546212 -74.709550
LeftForeArm -1.496355 -0.000000 13.197662
LeftHand -11.283689 -0.000000 -5.827735
LeftHandThumb1 -26.253704 0.000000 33.147579
RightShoulder -16.204924 43.349720 -60.047826
RightArm 73.055122 24.362607 82.590974
RightForeArm 34.752306 -0.000000 20.866897
RightHand -17.660738 -0.000000 8.871015
RightHandThumb1 -24.326973 -0.000000 -32.862282
LeftUpLeg -2.069528 -11.523025 -0.536772
LeftLeg 0.249443 -0.000000 -0.000000
LeftFoot -11.830377 9.922671 -23.579298
LeftToeBase 8.483967 -0.000000 -0.000000
RightUpLeg 5.993503 -14.641949 -3.528144
RightLeg -4.056372 -0.000000 0.000000
RightFoot -17.497378 -20.921428 12.054562
RightToeBase 5.316012 -0.000000 -0.000000
750
root -1.507323 31.952137 -6.035083 6.225489 25.841628 5.228895
Spine -8.345789 -0.900123 -3.837633
Head 4.315671 -7.498241 -7.250900
LeftShoulder -11.367890 14.194308 6.977341
LeftArm 23.603581 39.538829 -74.680633
LeftForeArm -1.503213 -0.000000 13.201241
LeftHand -11.278518 -0.000000 -5.847294
LeftHandThumb1 -26.253704 0.000000 33.147579
RightShoulder -16.199256 43.349910 -60.025300
RightArm 73.045512 24.379831 82.584971
RightForeArm 34.677983 -0.000000 20.940477
RightHand -17.520269 -0.000000 8.866119
RightHandThumb1 -24.326973 -0.000000 -32.862282
LeftUpLeg -2.053044 -11.553362 -0.547661
LeftLeg 0.257809 -0.000000 -0.000000
LeftFoot -11.847561 9.935457 -23.602153
LeftToeBase 8.461985 -0.000000 -0.000000
RightUpLeg 6.018091 -14.657253 -3.542531
RightLeg -4.051834 -0.000000 0.000000
RightFoot -17.512676 -20.915514 12.066468
RightToeBase 5.325654 -0.000000 -0.000000
751
root -1.505423 31.951057 -6.031863 6.206299 25.854261 5.213218
Spine -8.352427 -0.878781 -3.824747
Head 4.326965 -7.530291 -7.267873
LeftShoulder -11.374437 14.181534 6.971303
LeftArm 23.603238 39.547499 -74.673067
LeftForeArm -1.505330 -0.000000 13.194421
LeftHand -11.338092 -0.000000 -5.920636
LeftHandThumb1 -26.253704 0.000000 33.147579
RightShoulder -16.212046 43.361625 -60.036640
RightArm 72.994649 24.395902 82.530476
RightForeArm 34.643178 -0.000000 21.014122
RightHand -17.436139 -0.000000 8.813749
RightHandThumb1 -24.326973 -0.000000 -32.862282
LeftUpLeg -2.030999 -11.589371 -0.532030
LeftLeg 0.251189 -0.000000 -0.000000
LeftFoot -11.868915 9.933273 -23.600368
LeftToeBase 8.506248 -0.000000 -0.000000
RightUpLeg 6.040204 -14.633914 -3.529944
RightLeg -4.053280 -0.000000 0.000000
RightFoot -17.517237 -20.954823 12.063642
RightToeBase 5.296246 -0.000000 -0.000000
752
root -1.500312 31.950659 -6.028237 6.193385 25.867207 5.225278
Spine -8.355084 -0.872840 -3.837077
Head 4.331969 -7.536073 -7.280291
LeftShoulder -11.404153 14.200158 6.956567
LeftArm 23.622227 39.535550 -74.664257
LeftForeArm -1.476047 -0.000000 13.202770
LeftHand -11.330830 -0.000000 -5.922067
LeftHandThumb1 -26.253704 0.000000 33.147579
RightShoulder -16.225009 43.481084 -60.036206
RightArm 72.874181 24.391470 82.432797
RightForeArm 34.573239 -0.000000 21.064547
RightHand -17.341622 -0.000000 8.766393
RightHandThumb1 -24.326973 -0.000000 -32.862282
LeftUpLeg -2.000317 -11.619370 -0.552714
LeftLeg 0.242983 -0.000000 -0.000000
LeftFoot -11.872623 9.943895 -23.621826
LeftToeBase 8.468958 -0.000000 -0.000000
RightUpLeg 6.069530 -14.656599 -3.553584
RightLeg -4.049780 -0.000000 0.000000
RightFoot -17.524722 -20.935038 12.073778
RightToeBase 5.305623 -0.000000 -0.000000
753
root -1.497221 31.950078 -6.025361 6.177421 25.869891 5.227355
Spine -8.363985 -0.851553 -3.833868
Head 4.354315 -7.503135 -7.298133
LeftShoulder -11.399986 14.216412 6.943776
LeftArm 23.627008 39.523429 -74.654584
LeftForeArm -1.489375 0.000000 13.223853
LeftHand -11.260087 -0.000000 -5.838178
LeftHandThumb1 -26.253704 0.000000 33.147579
RightShoulder -16.201814 43.434446 -60.044457
RightArm 72.879946 24.438283 82.462403
RightForeArm 34.516861 -0.000000 21.169756
RightHand -17.315896 -0.000000 8.702498
RightHandThumb1 -24.326973 -0.000000 -32.862282
LeftUpLeg -1.979575 -11.605827 -0.561797
LeftLeg 0.252268 -0.000000 -0.000000
LeftFoot -11.894309 9.913533 -23.641093
LeftToeBase 8.563152 -0.000000 -0.000000
RightUpLeg 6.091262 -14.654843 -3.564986
RightLeg -4.040343 -0.000000 0.000000
RightFoot -17.538276 -20.928383 12.075963
RightToeBase 5.288863 -0.000000 -0.000000
754
root -1.494951 31.949768 -6.022530 6.163541 25.875429 5.226653
Spine -8.370276 -0.827536 -3.840136
Head 4.354595 -7.520737 -7.306452
LeftShoulder -11.393381 14.216020 6.942273
LeftArm 23.607563 39.486655 -74.680292
LeftForeArm -1.463874 -0.000000 13.235353
LeftHand -11.264195 -0.000000 -5.841641
LeftHandThumb1 -26.253704 0.000000 33.147579
RightShoulder -16.189414 43.447967 -60.039226
RightArm 72.840671 24.475447 82.436931
RightForeArm 34.527564 -0.000000 21.233026
RightHand -17.276600 -0.000000 8.628332
RightHandThumb1 -24.326973 -0.000000 -32.862282
LeftUpLeg -1.959375 -11.626227 -0.565749
LeftLeg 0.252583 -0.000000 -0.000000
LeftFoot -11.899576 9.925088 -23.619828
LeftToeBase 8.500238 -0.000000 -0.000000
RightUpLeg 6.108315 -14.653217 -3.569851
RightLeg -4.031140 -0.000000 0.000000
RightFoot -17.553565 -20.942933 12.086902
RightToeBase 5.294149 -0.000000 -0.000000
755
root -1.491702 31.949660 -6.020085 6.153785 25.885210 5.235620
Spine -8.375812 -0.810743 -3.853254
Head 4.346497 -7.531372 -7.315970
LeftShoulder -11.393396 14.242323 6.933557
LeftArm 23.626354 39.456511 -74.678246
LeftForeArm -1.456780 -0.000000 13.244047
LeftHand -11.240912 -0.000000 -5.842638
LeftHandThumb1 -26.253704 0.000000 33.147579
RightShoulder -16.170413 43.484233 -60.044570
RightArm 72.792246 24.527814 82.455086
RightForeArm 34.537697 -0.000000 21.302032
RightHand -17.196913 -0.000000 8.639881
RightHandThumb1 -24.326973 -0.000000 -32.862282
LeftUpLeg -1.946050 -11.651628 -0.578436
LeftLeg 0.264971 -0.000000 -0.000000
LeftFoot -11.915271 9.931967 -23.643080
LeftToeBase 8.524766 -0.000000 -0.000000
RightUpLeg 6.129316 -14.671506 -3.586338
RightLeg -4.026542 -0.000000 0.000000
RightFoot -17.560724 -20.934665 12.091020
RightToeBase 5.305968 -0.000000 -0.000000
756
root -1.489249 31.949304 -6.017490 6.137222 25.890060 5.232526
Spine -8.377366 -0.802505 -3.852764
Head 4.321871 -7.522701 -7.324511
LeftShoulder -11.398185 14.242933 6.922694
LeftArm 23.614180 39.439789 -74.688535
LeftForeArm -1.463372 0.000000 13.253645
LeftHand -11.228635 0.000000 -5.806745
LeftHandThumb1 -26.253704 0.000000 33.147579
RightShoulder -16.147926 43.475075 -60.042781
RightArm 72.800076 24.582083 82.520288
RightForeArm 34.597926 -0.000000 21.357507
RightHand -17.125734 -0.000000 8.670913
RightHandThumb1 -24.326973 -0.000000 -32.862282
LeftUpLeg -1.925972 -11.660612 -0.581859
LeftLeg 0.269492 -0.000000 -0.000000
LeftFoot -11.931063 9.945583 -23.629433
LeftToeBase 8.506542 -0.000000 -0.000000
RightUpLeg 6.147249 -14.674335 -3.589820
RightLeg -4.016272 -0.000000 0.000000
RightFoot -17.564689 -20.929569 12.092249
RightToeBase 5.301844 -0.000000 -0.000000
757
root -1.486696 31.948995 -6.014967 6.122410 25.891895 5.235758
Spine -8.379788 -0.801155 -3.869429
Head 4.303182 -7.534169 -7.302009
LeftShoulder -11.409264 14.229813 6.933441
LeftArm 23.579781 39.429726 -74.729293
LeftForeArm -1.438388 -0.000000 13.260155
LeftHand -11.260438 -0.000000 -5.776982
LeftHandThumb1 -26.253704 0.000000 33.147579
RightShoulder -16.115759 43.503515 -60.013832
RightArm 72.788432 24.627517 82.571347
RightForeArm 34.688878 -0.000000 21.396106
RightHand -17.053067 0.000000 8.584385
RightHandThumb1 -24.326973 -0.000000 -32.862282
LeftUpLeg -1.902437 -11.662446 -0.591586
LeftLeg 0.266615 -0.000000 -0.000000
LeftFoot -11.937620 9.935684 -23.631654
LeftToeBase 8.541476 -0.000000 -0.000000
RightUpLeg 6.167834 -14.675851 -3.600254
RightLeg -4.009629 -0.000000 0.000000
RightFoot -17.580918 -20.926069 12.113360
RightToeBase 5.309587 -0.000000 -0.000000
758
root -1.483176 31.948946 -6.012293 6.110297 25.891752 5.242638
Spine -8.380961 -0.789649 -3.877098
Head 4.260749 -7.507720 -7.304751
LeftShoulder -11.417821 14.234193 6.920053
LeftArm 23.584053 39.425875 -74.729346
LeftForeArm -1.439675 -0.000000 13.258931
LeftHand -11.248868 -0.000000 -5.782843
LeftHandThumb1 -26.253704 0.000000 33.147579
RightShoulder -16.106036 43.528944 -60.001619
RightArm 72.791558 24.645303 82.603466
RightForeArm 34.779666 -0.000000 21.407004
RightHand -16.972673 -0.000000 8.474068
RightHandThumb1 -24.326973 -0.000000 -32.862282
LeftUpLeg -1.887100 -11.661051 -0.606122
LeftLeg 0.282829 -0.000000 -0.000000
LeftFoot -11.943365 9.933331 -23.634947
LeftToeBase 8.499568 -0.000000 -0.000000
RightUpLeg 6.187496 -14.684914 -3.616672
RightLeg -4.001754 -0.000000 0.000000
RightFoot -17.583084 -20.927342 12.097262
RightToeBase 5.305872 -0.000000 -0.000000
